# xmcd CD database file
#
# Track frame offsets:
#	150
#	38015
#	65307
#	98532
#	153229
#
# Disc length: 2544 seconds
#
# Revision: 8
# Processed by: cddbd v1.5.2PL0 Copyright (c) Steve Scherf et al.
# Submitted via: CDex 1.51
#
DISCID=2d09ee05
DTITLE=Eric Dolphy - Out To Lunch
DYEAR=1964
DGENRE=Jazz
TTITLE0=Hat And Beard
TTITLE1=Something Sweet, Something Tender
TTITLE2=Gazzelloni
TTITLE3=Out To Lunch
TTITLE4=Straight Up And Down
EXTD=YEAR: 1964
EXTT0=
EXTT1=
EXTT2=
EXTT3=
EXTT4=
PLAYORDER=
